# Blender 5.1.0
# www.blender.org
mtllib Cube.mtl
o Cube
v 1.322592 0.577111 -0.957962
v 0.481321 -1.230063 -1.120390
v 1.333108 0.393221 1.033538
v 0.491836 -1.413953 0.871110
v -0.491836 1.413953 -0.871110
v -1.333108 -0.393221 -1.033538
v -0.481321 1.230063 1.120390
v -1.322592 -0.577111 0.957962
vn 0.4206 0.9036 0.0812
vn 0.0053 -0.0919 0.9958
vn -0.9072 0.4184 0.0434
vn -0.4206 -0.9036 -0.0812
vn 0.9072 -0.4184 -0.0434
vn -0.0053 0.0919 -0.9958
vt 0.625000 0.500000
vt 0.875000 0.500000
vt 0.875000 0.750000
vt 0.625000 0.750000
vt 0.375000 0.750000
vt 0.625000 1.000000
vt 0.375000 1.000000
vt 0.375000 0.000000
vt 0.625000 0.000000
vt 0.625000 0.250000
vt 0.375000 0.250000
vt 0.125000 0.500000
vt 0.375000 0.500000
vt 0.125000 0.750000
s 0
usemtl Material
f 1/1/1 5/2/1 7/3/1 3/4/1
f 4/5/2 3/4/2 7/6/2 8/7/2
f 8/8/3 7/9/3 5/10/3 6/11/3
f 6/12/4 2/13/4 4/5/4 8/14/4
f 2/13/5 1/1/5 3/4/5 4/5/5
f 6/11/6 5/10/6 1/1/6 2/13/6
